<svg width="64" height="64" viewBox="0 0 64 64" xmlns="http://www.w3.org/2000/svg">
  <!-- 紫色渐变背景 -->
  <defs>
    <radialGradient id="purpleGradient" cx="50%" cy="50%" r="50%">
      <stop offset="0%" style="stop-color:#8b5cf6;stop-opacity:1" />
      <stop offset="100%" style="stop-color:#6d28d9;stop-opacity:1" />
    </radialGradient>
  </defs>
  
  <!-- 圆形背景 -->
  <circle cx="32" cy="32" r="32" fill="url(#purpleGradient)"/>
  
  <!-- 角色主体 -->
  <g stroke="#000000" stroke-width="1" fill="none">
    <!-- 头部轮廓 -->
    <ellipse cx="32" cy="24" rx="14" ry="16" fill="#2d3748"/>
    
    <!-- 眼睛 -->
    <circle cx="28" cy="22" r="4" fill="#10b981"/>
    <circle cx="36" cy="22" r="4" fill="#10b981"/>
    
    <!-- 眼睛光晕效果 -->
    <circle cx="28" cy="22" r="4" fill="#10b981" opacity="0.3"/>
    <circle cx="36" cy="22" r="4" fill="#10b981" opacity="0.3"/>
    
    <!-- 眉毛/护目镜上缘 -->
    <path d="M24 18 Q28 16 32 18 Q36 16 40 18" stroke="#1a202c" stroke-width="1.5" fill="none"/>
    
    <!-- 左耳/耳机 -->
    <ellipse cx="18" cy="24" rx="3" ry="6" fill="#2d3748"/>
    <circle cx="18" cy="24" r="1.5" fill="#4a5568"/>
    
    <!-- 身体/连帽衫 -->
    <ellipse cx="32" cy="42" rx="12" ry="18" fill="#2d3748"/>
    
    <!-- 帽子 -->
    <path d="M20 20 Q32 12 44 20 Q44 24 32 28 Q20 24 20 20" fill="#1a202c"/>
    
    <!-- 帽子拉绳 -->
    <line x1="44" y1="22" x2="48" y2="24" stroke="#1a202c" stroke-width="1"/>
  </g>
</svg>
